<?xml version="1.0" standalone="no"?><!DOCTYPE svg PUBLIC "-//W3C//DTD SVG 1.1//EN" "http://www.w3.org/Graphics/SVG/1.1/DTD/svg11.dtd"><svg t="1616591892734" class="icon" viewBox="0 0 1024 1024" version="1.1" xmlns="http://www.w3.org/2000/svg" p-id="6110" width="14" height="14" xmlns:xlink="http://www.w3.org/1999/xlink"><defs><style type="text/css"></style></defs><path d="M966.56 543.072c11.392-20.768 24.448-54.88 18.912-96.288-5.504-41.312-23.648-72.384-53.92-92.384-41.28-27.264-103.776-32.096-190.048-14.624 18.272-67.936 41.312-181.824 15.424-254.496C726.912 0.96 643.52 0 640 0c-8.512 0-16.672 3.392-22.688 9.408a32.192 32.192 0 0 0-9.312 22.752c0.64 135.392-158.56 338.08-353.28 405.344C249.408 389.568 209.12 352 159.776 352h-32A96 96 0 0 0 32 448v416a96 96 0 0 0 95.776 96.032h32a95.68 95.68 0 0 0 82.24-47.264c25.248 14.432 60.864 32.672 99.616 45.6C472.256 1001.952 583.392 1024 672 1024c89.568 0 133.952-65.792 151.392-101.344 96.896-31.648 119.328-114.24 117.44-167.712 37.824-34.944 51.392-82.464 51.168-115.2-0.352-45.152-13.856-77.312-25.44-96.672zM191.776 864.032c0 17.664-14.368 32-32 32h-32A31.936 31.936 0 0 1 96 864V448c0-17.632 14.24-32 31.776-32h32c17.632 0 32 14.368 32 32v416.032z m696.928-148.992a32 32 0 0 0-12.896 31.2c0.64 3.84 14.432 94.208-81.888 118.432-10.624 2.112-19.904 10.56-23.904 20.64C761.088 907.744 733.632 960 672 960c-81.696 0-186.048-20.96-310.112-62.304-44.416-14.816-85.568-38.432-106.112-51.168V503.968c214.688-64.48 387.136-272.192 412.896-431.488 10.624 6.048 21.632 16.448 28 34.272 24.704 69.408-14.816 216.192-32.128 266.912a32 32 0 0 0 38.848 41.216c118.624-32.864 170.368-21.984 192.928-7.072 9.152 6.048 21.792 17.536 25.792 47.456 5.152 38.752-18.496 67.872-18.56 67.936-10.624 12.352-9.888 31.104 1.216 43.04 0.928 0.992 22.912 25.216 23.296 74.016 0.096 23.04-11.968 55.072-39.36 74.784z" p-id="6111" fill="#fafb10"></path></svg>